<?xml version="1.0" encoding="UTF-8" standalone="no"?>
<svg
   xmlns:dc="http://purl.org/dc/elements/1.1/"
   xmlns:cc="http://creativecommons.org/ns#"
   xmlns:rdf="http://www.w3.org/1999/02/22-rdf-syntax-ns#"
   xmlns:svg="http://www.w3.org/2000/svg"
   xmlns="http://www.w3.org/2000/svg"
   xmlns:sodipodi="http://sodipodi.sourceforge.net/DTD/sodipodi-0.dtd"
   xmlns:inkscape="http://www.inkscape.org/namespaces/inkscape"
   width="2.5in"
   height="3.5in"
   viewBox="-120 -168 240 336"
   preserveAspectRatio="none"
   class="card"
   face="TC"
   version="1.1"
   id="svg94"
   sodipodi:docname="t5h_card_back.svg"
   inkscape:version="1.0 (4035a4fb49, 2020-05-01)">
  <metadata
     id="metadata100">
    <rdf:RDF>
      <cc:Work
         rdf:about="">
        <dc:format>image/svg+xml</dc:format>
        <dc:type
           rdf:resource="http://purl.org/dc/dcmitype/StillImage" />
        <dc:title></dc:title>
      </cc:Work>
    </rdf:RDF>
  </metadata>
  <defs
     id="defs98" />
  <sodipodi:namedview
     inkscape:document-rotation="0"
     pagecolor="#ffffff"
     bordercolor="#666666"
     borderopacity="1"
     objecttolerance="10"
     gridtolerance="10"
     guidetolerance="10"
     inkscape:pageopacity="0"
     inkscape:pageshadow="2"
     inkscape:window-width="2564"
     inkscape:window-height="2040"
     id="namedview96"
     showgrid="false"
     inkscape:zoom="3"
     inkscape:cx="120"
     inkscape:cy="168"
     inkscape:window-x="0"
     inkscape:window-y="0"
     inkscape:window-maximized="0"
     inkscape:current-layer="svg94" />
  <symbol
     id="C"
     viewBox="-600 -600 1200 1200"
     preserveAspectRatio="xMinYMid">
    <path
       d="M30 150C35 385 85 400 130 500L-130 500C-85 400 -35 385 -30 150A10 10 0 0 0 -50 150A210 210 0 1 1 -124 -51A10 10 0 0 0 -110 -65A230 230 0 1 1 110 -65A10 10 0 0 0 124 -51A210 210 0 1 1 50 150A10 10 0 0 0 30 150Z"
       fill="black"
       id="path56" />
  </symbol>
  <symbol
     id="CT"
     viewBox="-500 -500 1000 1000"
     preserveAspectRatio="xMinYMid">
    <path
       d="M-260 430L-260 -430M-50 0L-50 -310A150 150 0 0 1 250 -310L250 310A150 150 0 0 1 -50 310Z"
       stroke="black"
       stroke-width="80"
       stroke-linecap="square"
       stroke-miterlimit="1.5"
       fill="none"
       id="path59" />
  </symbol>
  <rect
     width="239"
     height="335"
     x="-119.5"
     y="-167.5"
     rx="12"
     ry="12"
     fill="white"
     stroke="black"
     id="rect62" />
  <text
     id="text21"
     y="-13.333333"
     x="4.9016976"
     style="font-style:normal;font-weight:normal;font-size:40px;line-height:1.25;font-family:sans-serif;fill:#000000;fill-opacity:1;stroke:none"
     xml:space="preserve"><tspan
       style="text-align:center;text-anchor:middle"
       y="-13.333333"
       x="4.9016976"
       id="tspan19"
       sodipodi:role="line">Thompson</tspan><tspan
       style="text-align:center;text-anchor:middle"
       id="tspan23"
       y="36.666668"
       x="4.9016976"
       sodipodi:role="line">5-handed</tspan></text>
</svg>
