<?xml version="1.0" encoding="UTF-8" standalone="no"?>
<svg
   xmlns:dc="http://purl.org/dc/elements/1.1/"
   xmlns:cc="http://creativecommons.org/ns#"
   xmlns:rdf="http://www.w3.org/1999/02/22-rdf-syntax-ns#"
   xmlns:svg="http://www.w3.org/2000/svg"
   xmlns="http://www.w3.org/2000/svg"
   xmlns:sodipodi="http://sodipodi.sourceforge.net/DTD/sodipodi-0.dtd"
   xmlns:inkscape="http://www.inkscape.org/namespaces/inkscape"
   width="2.5in"
   height="3.5in"
   viewBox="-120 -168 240 336"
   preserveAspectRatio="none"
   class="card"
   face="TC"
   version="1.1"
   id="svg243"
   sodipodi:docname="black3.svg"
   inkscape:version="1.0 (4035a4fb49, 2020-05-01)">
  <metadata
     id="metadata249">
    <rdf:RDF>
      <cc:Work
         rdf:about="">
        <dc:format>image/svg+xml</dc:format>
        <dc:type
           rdf:resource="http://purl.org/dc/dcmitype/StillImage" />
        <dc:title />
      </cc:Work>
    </rdf:RDF>
  </metadata>
  <defs
     id="defs247" />
  <sodipodi:namedview
     inkscape:document-rotation="0"
     pagecolor="#ffffff"
     bordercolor="#666666"
     borderopacity="1"
     objecttolerance="10"
     gridtolerance="10"
     guidetolerance="10"
     inkscape:pageopacity="0"
     inkscape:pageshadow="2"
     inkscape:window-width="2523"
     inkscape:window-height="1697"
     id="namedview245"
     showgrid="false"
     inkscape:zoom="3"
     inkscape:cx="120"
     inkscape:cy="168"
     inkscape:window-x="116"
     inkscape:window-y="0"
     inkscape:window-maximized="0"
     inkscape:current-layer="svg243" />
  <symbol
     id="C"
     viewBox="-600 -600 1200 1200"
     preserveAspectRatio="xMinYMid">
    <path
       d="M30 150C35 385 85 400 130 500L-130 500C-85 400 -35 385 -30 150A10 10 0 0 0 -50 150A210 210 0 1 1 -124 -51A10 10 0 0 0 -110 -65A230 230 0 1 1 110 -65A10 10 0 0 0 124 -51A210 210 0 1 1 50 150A10 10 0 0 0 30 150Z"
       fill="black"
       id="path205" />
  </symbol>
  <symbol
     id="CT"
     viewBox="-500 -500 1000 1000"
     preserveAspectRatio="xMinYMid">
    <path
       d="M-260 430L-260 -430M-50 0L-50 -310A150 150 0 0 1 250 -310L250 310A150 150 0 0 1 -50 310Z"
       stroke="black"
       stroke-width="80"
       stroke-linecap="square"
       stroke-miterlimit="1.5"
       fill="none"
       id="path208" />
  </symbol>
  <rect
     width="239"
     height="335"
     x="-119.5"
     y="-167.5"
     rx="12"
     ry="12"
     fill="white"
     stroke="black"
     id="rect211" />
  <text
     xml:space="preserve"
     style="font-style:normal;font-weight:normal;font-size:40px;line-height:1.25;font-family:sans-serif;fill:#000000;fill-opacity:1;stroke:none"
     x="-78.666672"
     y="-120"
     id="text268"><tspan
       sodipodi:role="line"
       id="tspan266"
       x="-78.666672"
       y="-120" /></text>
  <text
     xml:space="preserve"
     style="font-style:normal;font-variant:normal;font-weight:normal;font-stretch:normal;font-size:40px;line-height:1.25;font-family:'QuickType II Condensed';-inkscape-font-specification:'QuickType II Condensed, ';fill:#000000;fill-opacity:1;stroke:none"
     x="-113.33333"
     y="-125.33334"
     id="text272"><tspan
       id="tspan300"
       sodipodi:role="line"
       x="-113.33333"
       y="-125.33334"
       style="font-style:normal;font-variant:normal;font-weight:normal;font-stretch:normal;font-family:'QuickType II Condensed';-inkscape-font-specification:'QuickType II Condensed, '">3</tspan></text>
</svg>
